PathFileType	4	(X/Y/Z)	Patient4_TMGait_0pt2_02_right_12.trc.trc
DataRate	CameraRate	NumFrames	NumMarkers	Units	OrigDataRate	OrigDataStartFrame	OrigNumFrames
49.469964664311	49.469964664311	4	33	mm	49.469964664311	1	       141
Frame#	Time	R.Midfoot.Superior			Sacral			L.Shoulder			Chest			R.Shoulder			Neck			R.ASIS			L.ASIS			R.Thigh.Superior			R.Thigh.Lateral			R.Thigh.Inferior			R.Patella			L.Thigh.Superior			L.Thigh.Lateral			L.Thigh.Inferior			L.Patella			L.Shank.Superior			L.Shank.Lateral			L.Shank.Inferior			R.Shank.Superior			R.Shank.Lateral			R.Shank.Inferior			R.Heel			R.Midfoot.Lateral			R.Toe			L.Heel			L.Midfoot.Lateral			L.Midfoot.Superior			L.Toe			L.Elbow			L.Wrist			R.Elbow			R.Wrist			
		X1	Y1	Z1	X2	Y2	Z2	X3	Y3	Z3	X4	Y4	Z4	X5	Y5	Z5	X6	Y6	Z6	X7	Y7	Z7	X8	Y8	Z8	X9	Y9	Z9	X10	Y10	Z10	X11	Y11	Z11	X12	Y12	Z12	X13	Y13	Z13	X14	Y14	Z14	X15	Y15	Z15	X16	Y16	Z16	X17	Y17	Z17	X18	Y18	Z18	X19	Y19	Z19	X20	Y20	Z20	X21	Y21	Z21	X22	Y22	Z22	X23	Y23	Z23	X24	Y24	Z24	X25	Y25	Z25	X26	Y26	Z26	X27	Y27	Z27	X28	Y28	Z28	X29	Y29	Z29	X30	Y30	Z30	X31	Y31	Z31	X32	Y32	Z32	X33	Y33	Z33	

1	26.690000000000	669.360265243059	123.771122370500	524.116010114096	566.981672419273	979.801984085380	339.261507918368	737.921606241525	1429.242733983100	183.993120339007	852.453606008443	1340.746518612810	326.930864977097	788.504100233633	1395.487317551786	514.149264087191	728.264846144445	1468.730571795765	355.624622343940	808.774176866638	914.622000188750	429.740533817007	767.470489375567	948.822268415064	161.053261214951	871.397887429933	725.711335170111	393.467022943601	821.570163889946	612.410039378556	475.476262007349	894.673543608172	559.557312415871	388.319070184524	904.014760347350	451.332714273589	414.027163724169	843.596570033732	746.352147259267	197.130307018590	774.595689832530	611.402593734152	148.943116854610	873.685227076198	551.157180937880	213.416103982999	884.486616984368	474.563813580892	222.230366330368	843.329428771709	398.591846914512	223.057963910255	735.133520554543	295.566092123258	184.879393685733	771.565047064177	182.477129571319	258.032828957948	830.096790392439	380.489990326985	440.847713389611	722.139916469011	347.151469786906	526.402182181686	698.551696013787	235.488050065481	487.676770719678	493.325672081023	169.606027165326	499.316131095337	565.600718465412	122.482224352155	570.185448904931	741.854394358366	31.762951423083	549.509250116222	629.038230867750	38.755878357536	315.563212925151	693.266020787854	35.194557504034	227.122384460075	780.763313020520	94.665789046552	244.999553733814	903.978221008200	39.989348011966	200.735482783525	793.674422785806	1121.686111047202	-6.370912725103	976.085347658392	933.477541685519	-39.612443171949	832.333648819663	1035.010015017145	598.114075150693	1009.041694504141	841.503487788505	581.990992116286	
2	26.710214285714	669.871471293415	127.109486101957	522.408707378640	564.818497216458	979.595321289774	334.604313975836	742.035183495638	1428.569596756563	181.688575200525	852.169283761604	1339.596773856619	327.360025537067	783.735978372538	1395.145480479299	512.558514403288	728.387005189543	1468.412168036978	352.310940822272	804.907597863209	915.028345543385	429.636977415103	768.154311720205	947.845273505493	160.162933564426	871.098277968979	729.048209733059	393.315371487406	823.765053398070	615.037071243650	475.146614281479	898.406849256930	563.496429670925	388.373855681031	909.354079946404	454.698858903037	414.816232602221	843.069207581254	745.272401813044	197.308724648840	774.440155681370	610.540947026153	148.443783381338	872.618971931313	550.342431481076	214.321472718794	883.128339018102	473.631533755582	223.386113852306	841.499526917370	397.766169269058	223.721818481784	733.054134626214	295.252263161731	184.835753671815	768.246810393190	182.034081793507	258.205154894789	834.648314085993	383.605229894728	440.793630235099	725.273847875369	351.417088485396	525.011236669758	701.234336111270	239.919617838969	486.510714886465	495.635489216302	178.743483841989	495.172758435625	565.355318124824	129.439912392843	566.986852531687	738.474951047707	30.872020281719	549.144118988509	624.878035728133	38.809481148547	315.414266122321	689.207400220235	35.186854116296	227.023683893473	776.739226149313	94.590173170484	245.038384309608	899.935816060790	39.811528525597	200.727550373980	807.056800426550	1125.104718230591	-9.934462074471	1000.644197342669	951.063998212389	-42.019607098266	806.621053665171	1034.332092661047	596.714909659800	963.210271614391	828.168264724894	584.612200539308	
3	26.730428571429	670.552186808109	130.526909469396	520.794632420541	562.579025178154	979.621263435855	329.890163568353	746.270821086354	1428.054281569046	179.437267278814	851.861490912289	1338.653368559468	327.920314460225	778.781144572487	1395.063416639223	510.973342892993	728.491945009679	1468.281167982937	348.975248972125	800.915727661451	915.617752504702	429.619587634659	768.880047166465	947.020970634282	159.376083301295	870.674296379891	732.608380813486	393.305109823082	825.736906345660	617.872423816906	474.979428472043	901.997483737392	567.651872026752	388.693871952227	914.511564790511	458.293366797353	415.843393320880	842.442047665531	744.229950889031	197.492744675833	774.049965930242	609.776858711118	147.971191892139	871.281210563582	549.554626140245	215.218421643100	881.454728072409	472.757468155322	224.528024769415	839.377255694400	397.013507512723	224.367740772035	730.721922586191	294.971093942618	184.785401702885	764.746919930956	181.631589490349	258.363553696557	839.050468602497	386.896157879118	440.961528854110	728.246000569059	355.759049925614	523.851224979011	703.824635810783	244.344810577153	485.551391534588	497.769140662295	187.323129430802	491.524218012950	565.295929759877	135.992405271760	564.100170550764	735.766165807243	30.176967125800	548.607176923276	620.592024867662	38.867434898014	315.256721685356	685.020845330482	35.175313902528	226.920947493197	772.583237110448	94.517750424845	245.062318821281	895.765588554526	39.639702231187	200.716709832391	820.637409860112	1128.732593453063	-13.319503936082	1025.320180670491	969.393581830730	-44.084713849416	780.264073850319	1034.368306192739	595.297068800999	916.136444819777	815.926882150148	586.964925985433	
4	26.750642857143	671.657141609939	133.846969146455	519.408673479855	560.311857101236	979.998431963131	325.258526603486	750.550172137951	1427.791381491059	177.347987473884	851.530287495760	1338.049430973020	328.658574130013	773.733437897687	1395.382991378023	509.449538774870	728.574382131933	1468.436648294035	345.730996852608	796.856682307242	916.469859054211	429.750869008926	769.644840047683	946.450691957546	158.795094851250	870.035320364103	736.355976158161	393.538481712106	827.258139626055	620.912188853913	475.084070372547	905.167177217609	571.955795592681	389.412802150882	919.148381475386	462.104708615196	417.204536882597	841.671892704079	743.282296878769	197.711275802702	773.309402900851	609.190888122012	147.568166340194	869.558724626562	548.835692079331	216.091467264920	879.338676306222	472.004354793581	225.629342766546	836.868248115337	396.401017923451	224.977088272726	728.075469851400	294.751186847302	184.733731892235	761.084384557752	181.305144100352	258.501906052668	843.065537063546	390.317689406538	441.471188863841	730.927268106656	359.958503241633	523.106380699229	706.326199157158	248.517404796772	484.954839117318	499.809263264421	194.587101458635	488.723377794774	565.742087400497	141.587191282110	561.783459851653	734.358506144028	29.794225341999	547.904245018461	616.258063394710	38.923975062584	315.096368216845	680.779883523622	35.158815188866	226.815688825061	768.366334394739	94.453541858975	245.065201743786	891.540896276469	39.484143702353	200.703250143495	834.056073764467	1132.554332417187	-16.317326472202	1049.314028775289	988.186241574784	-45.547331006356	753.874261918533	1035.495363282156	593.866148349097	868.903559410853	805.761575679881	588.818226264711	
